<svg xmlns="http://www.w3.org/2000/svg" viewBox="0 0 1743 902" width="1743" height="902">
  <title>Jimo Logo</title>
  <defs>
    <linearGradient id="pinGrad" x1="439" y1="121" x2="439" y2="787" gradientUnits="userSpaceOnUse">
      <stop offset="0%" stop-color="#9D8EED"/>
      <stop offset="50%" stop-color="#8A78E4"/>
      <stop offset="100%" stop-color="#6158DF"/>
    </linearGradient>
    <linearGradient id="checkGrad" x1="291" y1="270" x2="577" y2="481" gradientUnits="userSpaceOnUse">
      <stop offset="0%" stop-color="#FFC861"/>
      <stop offset="100%" stop-color="#F7AC35"/>
    </linearGradient>
    <linearGradient id="textGrad" x1="0" y1="261" x2="0" y2="678" gradientUnits="userSpaceOnUse">
      <stop offset="0%" stop-color="#9B9AF0"/>
      <stop offset="47%" stop-color="#9B9AF0"/>
      <stop offset="53%" stop-color="#6066E5"/>
      <stop offset="100%" stop-color="#5E64E4"/>
    </linearGradient>
  </defs>
  <ellipse cx="433" cy="813" rx="95" ry="15" fill="#D1CEF8"/>
  <path d="M 421.08,785.95 C 413.01,782.29 397.79,768.99 371.47,742.60 C 329.39,700.42 300.22,665.14 269.28,619.00 C 229.56,559.77 198.33,489.33 185.99,431.13 C 181.71,410.90 180.02,396.79 179.34,375.50 C 178.46,347.58 181.13,326.52 188.98,299.71 C 201.40,257.22 229.21,213.90 262.50,185.16 C 281.45,168.80 296.52,158.79 319.11,147.57 C 350.34,132.05 378.70,124.56 416.31,121.91 C 434.44,120.63 455.62,121.93 475.50,125.55 C 513.34,132.44 550.66,148.63 580.72,171.20 C 595.99,182.66 607.17,193.03 618.61,206.32 C 650.28,243.13 669.50,285.27 676.64,333.56 C 679.02,349.63 679.00,386.26 676.60,404.00 C 671.59,441.06 660.83,480.00 644.96,518.50 C 636.40,539.26 614.59,581.63 600.17,605.52 C 580.15,638.69 557.30,670.82 534.08,698.47 C 516.04,719.94 497.61,739.39 479.90,755.63 C 449.23,783.78 442.93,788.02 431.81,787.98 C 427.67,787.96 423.98,787.27 421.08,785.95 Z" fill="url(#pinGrad)" fill-rule="evenodd"/>
  <path d="M 414.64,555.42 C 406.81,553.52 400.95,550.46 386.57,540.76 C 370.14,529.68 362.04,523.67 344.77,509.74 C 294.39,469.11 262.42,432.74 247.46,399.00 C 238.36,378.50 234.77,362.36 234.78,342.00 C 234.78,326.82 236.50,315.31 241.03,300.05 C 249.32,272.17 263.97,247.98 285.95,225.91 C 302.70,209.10 316.83,199.27 340.50,187.93 C 359.60,178.79 379.86,172.47 399.82,169.43 C 414.13,167.26 443.60,167.21 459.50,169.35 C 481.91,172.35 509.42,181.48 528.50,192.24 C 556.51,208.03 579.91,228.68 596.08,251.86 C 607.46,268.16 617.47,290.13 621.67,308.00 C 625.36,323.72 625.96,346.27 623.13,362.83 C 616.61,400.91 596.97,432.79 555.06,473.29 C 526.11,501.27 474.15,541.80 454.44,551.79 C 444.39,556.88 427.18,558.45 414.64,555.42 Z" fill="#FFFFFF" fill-rule="evenodd"/>
  <path d="M 407.08,480.41 C 399.44,477.64 395.25,474.32 372.58,453.03 C 348.03,429.97 336.73,419.79 317.41,403.30 C 301.56,389.78 298.61,386.50 294.61,378.05 C 291.86,372.23 291.51,370.49 291.50,362.45 C 291.50,354.01 291.75,352.88 295.22,345.88 C 300.50,335.18 305.61,329.80 314.76,325.27 C 322.06,321.67 322.84,321.50 332.45,321.50 C 341.67,321.50 343.05,321.76 349.22,324.68 C 352.92,326.44 358.10,329.84 360.72,332.25 C 363.35,334.66 371.08,341.33 377.89,347.07 C 384.71,352.80 394.96,361.44 400.67,366.25 C 410.42,374.46 411.34,375.00 415.63,375.00 C 419.48,375.00 420.70,374.49 423.35,371.74 C 425.08,369.95 435.73,358.59 447.00,346.50 C 510.19,278.75 511.60,277.32 518.47,273.94 C 523.81,271.31 526.48,270.67 533.72,270.27 C 540.98,269.86 543.61,270.16 548.92,271.96 C 560.31,275.82 568.82,283.36 574.54,294.65 C 577.29,300.08 577.50,301.29 577.50,311.50 C 577.50,321.85 577.31,322.89 574.30,329.03 C 572.06,333.62 567.88,339.00 560.30,347.07 C 539.25,369.47 500.17,411.86 476.00,438.50 C 444.51,473.20 442.05,475.63 435.18,478.75 C 427.86,482.06 413.91,482.89 407.08,480.41 Z" fill="url(#checkGrad)" fill-rule="evenodd"/>
  <path d="M 717.42,677.05 C 713.52,676.60 708.01,675.91 705.17,675.52 L 700.00,674.81 L 700.00,642.41 C 700.00,624.58 700.11,610.00 700.25,610.01 C 700.39,610.02 702.63,610.67 705.24,611.46 C 707.84,612.25 714.44,613.39 719.91,613.99 C 738.00,615.98 753.14,612.29 762.85,603.52 C 765.12,601.47 768.33,597.02 769.97,593.64 C 775.89,581.49 776.00,579.28 776.00,476.62 C 776.00,389.97 776.12,383.26 777.75,380.00 C 781.00,373.51 783.37,373.00 810.85,373.00 C 837.95,373.00 840.34,373.46 843.43,379.30 C 845.00,382.26 845.10,390.21 844.76,485.00 C 844.42,579.08 844.24,588.11 842.60,594.98 C 837.67,615.70 829.99,632.76 820.40,644.31 C 814.70,651.18 804.10,659.70 794.79,664.91 C 787.66,668.89 774.16,673.50 763.58,675.56 C 754.20,677.38 727.71,678.24 717.42,677.05 Z M 1455.50,589.31 C 1422.99,585.10 1396.26,569.21 1379.64,544.22 C 1366.92,525.08 1361.06,504.62 1361.02,479.16 C 1360.97,451.33 1371.03,425.68 1389.73,405.96 C 1405.61,389.21 1423.36,379.56 1448.52,374.00 C 1456.22,372.30 1461.93,371.78 1473.50,371.72 C 1495.81,371.61 1512.32,375.18 1530.53,384.05 C 1568.96,402.77 1592.77,447.20 1588.10,491.50 C 1582.62,543.62 1549.55,579.74 1499.29,588.51 C 1491.39,589.89 1463.83,590.39 1455.50,589.31 Z M 893.21,583.90 C 891.22,583.31 889.15,581.66 887.97,579.71 C 886.06,576.58 886.01,574.06 886.02,479.50 C 886.03,403.91 886.31,381.95 887.28,380.03 C 887.97,378.67 890.05,376.53 891.91,375.28 C 895.20,373.06 895.96,373.00 919.40,373.00 C 940.35,373.00 943.96,373.23 946.99,374.75 C 948.90,375.71 951.03,377.62 951.72,379.00 C 952.69,380.95 952.97,403.21 952.99,479.73 L 953.00,577.97 L 950.08,581.23 L 947.17,584.50 L 921.83,584.69 C 907.58,584.80 895.06,584.45 893.21,583.90 Z M 996.01,583.25 C 994.10,582.29 991.96,580.38 991.27,579.00 C 990.28,577.03 990.07,555.55 990.26,478.27 L 990.50,380.04 L 993.77,376.77 L 997.03,373.50 L 1018.42,373.20 C 1042.49,372.85 1045.47,373.44 1048.97,379.19 C 1050.38,381.49 1050.99,384.25 1051.00,388.25 C 1051.00,392.19 1051.39,393.99 1052.25,393.98 C 1052.94,393.97 1055.30,392.13 1057.50,389.88 C 1068.51,378.63 1085.81,370.96 1104.94,368.83 C 1114.01,367.82 1117.14,367.89 1126.32,369.31 C 1147.09,372.52 1165.30,383.10 1175.29,397.74 C 1176.50,399.53 1177.99,400.99 1178.58,400.99 C 1179.18,401.00 1181.12,399.19 1182.90,396.97 C 1190.13,387.98 1208.71,376.56 1223.44,372.07 C 1244.21,365.73 1271.11,367.59 1289.42,376.64 C 1293.31,378.56 1298.86,381.97 1301.77,384.21 C 1315.71,394.97 1326.52,415.50 1330.06,438.00 C 1330.85,442.98 1331.38,467.50 1331.66,511.00 C 1331.99,563.48 1331.82,577.00 1330.77,579.00 C 1330.06,580.38 1327.90,582.31 1325.99,583.30 C 1322.86,584.92 1320.04,585.08 1298.46,584.80 C 1277.30,584.54 1274.08,584.28 1271.66,582.70 C 1270.15,581.71 1268.48,579.76 1267.96,578.38 C 1267.39,576.89 1266.99,552.20 1266.98,517.68 C 1266.97,471.51 1266.67,458.13 1265.56,452.86 C 1262.11,436.62 1253.80,428.32 1238.43,425.77 C 1233.49,424.95 1230.20,424.99 1225.19,425.91 C 1212.70,428.21 1204.36,434.71 1198.93,446.38 C 1193.51,458.00 1193.00,464.74 1193.00,524.12 L 1193.00,577.97 L 1190.08,581.23 L 1187.17,584.50 L 1163.81,584.80 C 1136.75,585.15 1133.55,584.59 1130.74,579.00 C 1129.12,575.78 1128.99,570.94 1129.04,518.00 C 1129.07,483.75 1128.70,458.44 1128.10,455.41 C 1126.55,447.46 1123.48,440.29 1119.56,435.51 C 1112.83,427.30 1099.84,423.45 1087.48,426.00 C 1070.98,429.40 1061.35,439.24 1056.85,457.29 C 1054.63,466.20 1054.54,468.35 1054.03,522.65 C 1053.53,576.00 1053.41,578.90 1051.60,580.89 C 1050.56,582.04 1048.08,583.44 1046.10,583.99 C 1044.12,584.54 1032.83,584.99 1021.00,584.99 C 1002.52,585.00 999.01,584.75 996.01,583.25 Z M 1488.00,535.49 C 1495.96,533.53 1499.81,531.72 1506.71,526.63 C 1516.27,519.60 1523.43,507.59 1526.04,494.27 C 1527.84,485.05 1526.84,467.09 1524.09,459.11 C 1519.67,446.31 1510.64,435.65 1499.17,429.70 C 1490.78,425.35 1483.56,423.60 1474.00,423.60 C 1458.76,423.60 1446.28,428.63 1436.09,438.88 C 1425.33,449.70 1421.00,461.48 1421.00,479.88 C 1421.00,493.60 1423.96,503.78 1430.99,514.30 C 1437.63,524.22 1444.95,530.14 1455.43,534.06 C 1465.76,537.93 1476.21,538.38 1488.00,535.49 Z M 803.74,341.45 C 796.69,339.73 792.80,337.80 787.19,333.26 C 781.59,328.72 778.06,323.06 775.81,315.02 C 770.11,294.63 779.52,272.63 797.50,264.33 C 802.56,261.99 804.84,261.56 812.00,261.55 C 819.46,261.54 821.30,261.92 827.00,264.64 C 835.28,268.59 840.61,273.30 844.89,280.41 C 853.27,294.37 852.79,312.62 843.70,325.41 C 834.61,338.21 817.92,344.91 803.74,341.45 Z M 913.10,341.47 C 900.78,338.03 891.74,330.66 886.48,319.78 C 874.91,295.81 889.17,267.35 915.42,261.99 C 930.36,258.95 946.11,266.05 954.81,279.75 C 963.27,293.08 962.93,311.09 953.94,325.09 C 945.69,337.94 927.14,345.39 913.10,341.47 Z" fill="url(#textGrad)" fill-rule="evenodd"/>
</svg>